<?xml version="1.0" encoding="utf-8"?>
<!DOCTYPE svg PUBLIC "-//W3C//DTD SVG 1.1//EN" "http://www.w3.org/Graphics/SVG/1.1/DTD/svg11.dtd">
<svg xmlns="http://www.w3.org/2000/svg" xmlns:xlink="http://www.w3.org/1999/xlink" version="1.1" baseProfile="full" width="442.5" height="181.5" viewBox="0 0 442.50 181.50" enable-background="new 0 0 442.50 181.50" xml:space="preserve">
	<rect x="0" y="0" fill="#000000" fill-opacity="1" stroke-width="0.2" stroke-linejoin="round" width="442.5" height="181.5"/>
	<g>
		<path fill="#FFFFFF" fill-opacity="1" stroke-linejoin="round" d="M 273.76,55L 273.76,43.8L 276.975,43.8C 277.953,43.8 278.729,44.0359 279.301,44.5075C 279.874,44.9792 280.16,45.5934 280.16,46.35C 280.16,46.9817 279.989,47.5309 279.646,47.9975C 279.304,48.4642 278.832,48.7959 278.23,48.9925L 278.23,49.025C 279.008,49.1134 279.631,49.3992 280.099,49.8825C 280.566,50.3659 280.8,50.995 280.8,51.77C 280.8,52.7317 280.449,53.5104 279.747,54.1063C 279.046,54.7021 278.161,55 277.092,55L 273.76,55 Z M 275.04,44.92L 275.04,48.6L 276.392,48.6C 277.116,48.6 277.684,48.4238 278.099,48.0713C 278.513,47.7188 278.72,47.2217 278.72,46.58C 278.72,45.4734 277.999,44.92 276.557,44.92L 275.04,44.92 Z M 275.04,49.72L 275.04,53.88L 276.867,53.88C 277.657,53.88 278.27,53.6921 278.706,53.3163C 279.142,52.9404 279.36,52.4242 279.36,51.7675C 279.36,50.4025 278.436,49.72 276.587,49.72L 275.04,49.72 Z "/>
		<path fill="#FFFFFF" fill-opacity="1" stroke-linejoin="round" d="M 289.28,55L 288,55L 288,53.665L 287.967,53.665C 287.429,54.6617 286.594,55.16 285.462,55.16C 283.527,55.16 282.56,54.0284 282.56,51.765L 282.56,47L 283.84,47L 283.84,51.5325C 283.84,53.2042 284.497,54.04 285.812,54.04C 286.449,54.04 286.973,53.8117 287.384,53.355C 287.794,52.8984 288,52.3017 288,51.565L 288,47L 289.28,47L 289.28,55 Z "/>
		<path fill="#FFFFFF" fill-opacity="1" stroke-linejoin="round" d="M 292.472,44.92C 292.252,44.92 292.065,44.845 291.911,44.695C 291.757,44.545 291.68,44.355 291.68,44.125C 291.68,43.8934 291.757,43.7013 291.911,43.5488C 292.065,43.3963 292.252,43.32 292.472,43.32C 292.697,43.32 292.888,43.3963 293.045,43.5488C 293.202,43.7013 293.28,43.8934 293.28,44.125C 293.28,44.345 293.202,44.5325 293.045,44.6875C 292.888,44.8425 292.697,44.92 292.472,44.92 Z M 293.12,55L 291.84,55L 291.84,47L 293.12,47L 293.12,55 Z "/>
		<rect x="295.68" y="43.16" fill="#FFFFFF" fill-opacity="1" stroke-linejoin="round" width="1.27997" height="11.84"/>
		<path fill="#FFFFFF" fill-opacity="1" stroke-linejoin="round" d="M 306.4,55L 305.12,55L 305.12,53.57L 305.09,53.57C 304.497,54.63 303.582,55.16 302.345,55.16C 301.341,55.16 300.54,54.8042 299.94,54.0925C 299.34,53.3809 299.04,52.4125 299.04,51.1875C 299.04,49.8725 299.372,48.8192 300.037,48.0275C 300.702,47.2359 301.588,46.84 302.695,46.84C 303.792,46.84 304.589,47.2867 305.087,48.18L 305.12,48.18L 305.12,43.16L 306.4,43.16L 306.4,55 Z M 305.12,51.375L 305.12,50.22C 305.12,49.59 304.905,49.0559 304.476,48.6175C 304.047,48.1792 303.503,47.96 302.845,47.96C 302.062,47.96 301.445,48.24 300.995,48.8C 300.545,49.36 300.32,50.1342 300.32,51.1225C 300.32,52.0242 300.536,52.7359 300.967,53.2575C 301.399,53.7792 301.978,54.04 302.705,54.04C 303.422,54.04 304.003,53.7879 304.45,53.2838C 304.897,52.7796 305.12,52.1434 305.12,51.375 Z "/>
		<path fill="#FFFFFF" fill-opacity="1" stroke-linejoin="round" d="M 309.592,44.92C 309.372,44.92 309.185,44.845 309.031,44.695C 308.877,44.545 308.8,44.355 308.8,44.125C 308.8,43.8934 308.877,43.7013 309.031,43.5488C 309.185,43.3963 309.372,43.32 309.592,43.32C 309.817,43.32 310.008,43.3963 310.165,43.5488C 310.322,43.7013 310.4,43.8934 310.4,44.125C 310.4,44.345 310.322,44.5325 310.165,44.6875C 310.008,44.8425 309.817,44.92 309.592,44.92 Z M 310.24,55L 308.96,55L 308.96,47L 310.24,47L 310.24,55 Z "/>
		<path fill="#FFFFFF" fill-opacity="1" stroke-linejoin="round" d="M 319.52,55L 318.24,55L 318.24,50.4825C 318.24,48.8009 317.607,47.96 316.342,47.96C 315.689,47.96 315.149,48.1984 314.721,48.675C 314.294,49.1517 314.08,49.7542 314.08,50.4825L 314.08,55L 312.8,55L 312.8,47L 314.08,47L 314.08,48.3975L 314.112,48.3975C 314.726,47.3592 315.613,46.84 316.775,46.84C 317.663,46.84 318.343,47.1217 318.814,47.685C 319.284,48.2484 319.52,49.0617 319.52,50.125L 319.52,55 Z "/>
		<path fill="#FFFFFF" fill-opacity="1" stroke-linejoin="round" d="M 328.8,54.405C 328.8,57.3617 327.412,58.84 324.637,58.84C 323.662,58.84 322.81,58.645 322.08,58.255L 322.08,56.92C 322.967,57.4534 323.812,57.72 324.615,57.72C 326.552,57.72 327.52,56.6417 327.52,54.485L 327.52,53.585L 327.49,53.585C 326.882,54.635 325.967,55.16 324.745,55.16C 323.752,55.16 322.952,54.8067 322.347,54.1C 321.742,53.3934 321.44,52.445 321.44,51.255C 321.44,49.905 321.766,48.8317 322.417,48.035C 323.069,47.2384 323.962,46.84 325.095,46.84C 326.17,46.84 326.967,47.2867 327.487,48.18L 327.52,48.18L 327.52,47L 328.8,47L 328.8,54.405 Z M 327.52,51.375L 327.52,50.22C 327.52,49.6 327.304,49.0684 326.872,48.625C 326.441,48.1817 325.903,47.96 325.26,47.96C 324.467,47.96 323.845,48.2413 323.395,48.8038C 322.945,49.3663 322.72,50.1542 322.72,51.1675C 322.72,52.0392 322.936,52.7359 323.367,53.2575C 323.799,53.7792 324.37,54.04 325.08,54.04C 325.802,54.04 326.389,53.7904 326.841,53.2913C 327.294,52.7921 327.52,52.1534 327.52,51.375 Z "/>
		<path fill="#FFFFFF" fill-opacity="1" stroke-linejoin="round" d="M 345.76,47L 343.36,55L 342.03,55L 340.38,49.275C 340.317,49.0567 340.275,48.8092 340.255,48.5325L 340.222,48.5325C 340.207,48.7192 340.152,48.9617 340.057,49.26L 338.267,55L 336.985,55L 334.56,47L 335.905,47L 337.562,53.015C 337.616,53.1984 337.652,53.4384 337.672,53.735L 337.735,53.735C 337.752,53.505 337.798,53.26 337.875,53L 339.722,47L 340.895,47L 342.552,53.03C 342.606,53.2234 342.645,53.4634 342.67,53.75L 342.732,53.75C 342.744,53.5467 342.788,53.3067 342.865,53.03L 344.492,47L 345.76,47 Z "/>
		<path fill="#FFFFFF" fill-opacity="1" stroke-linejoin="round" d="M 353.92,55L 352.64,55L 352.64,50.435C 352.64,48.785 352.007,47.96 350.742,47.96C 350.106,47.96 349.569,48.1984 349.134,48.675C 348.698,49.1517 348.48,49.7642 348.48,50.5125L 348.48,55L 347.2,55L 347.2,43.16L 348.48,43.16L 348.48,48.3975L 348.512,48.3975C 349.136,47.3592 350.023,46.84 351.175,46.84C 353.005,46.84 353.92,47.9225 353.92,50.0875L 353.92,55 Z "/>
		<path fill="#FFFFFF" fill-opacity="1" stroke-linejoin="round" d="M 362.08,55L 360.8,55L 360.8,53.68L 360.767,53.68C 360.202,54.6667 359.369,55.16 358.267,55.16C 357.457,55.16 356.824,54.9484 356.366,54.525C 355.909,54.1017 355.68,53.5392 355.68,52.8375C 355.68,51.3359 356.574,50.4625 358.362,50.2175L 360.8,49.88C 360.8,48.6 360.242,47.96 359.127,47.96C 358.149,47.96 357.267,48.28 356.48,48.92L 356.48,47.5975C 357.275,47.0925 358.191,46.84 359.227,46.84C 361.129,46.84 362.08,47.8317 362.08,49.815L 362.08,55 Z M 360.8,50.84L 358.812,51.11C 358.201,51.1934 357.739,51.3421 357.427,51.5563C 357.116,51.7704 356.96,52.1492 356.96,52.6925C 356.96,53.0892 357.104,53.4129 357.391,53.6638C 357.679,53.9146 358.061,54.04 358.537,54.04C 359.192,54.04 359.733,53.8142 360.16,53.3625C 360.587,52.9109 360.8,52.3392 360.8,51.6475L 360.8,50.84 Z "/>
		<path fill="#FFFFFF" fill-opacity="1" stroke-linejoin="round" d="M 368.32,54.8925C 368.012,55.0709 367.606,55.16 367.102,55.16C 365.674,55.16 364.96,54.3834 364.96,52.83L 364.96,48.12L 363.52,48.12L 363.52,47L 364.96,47L 364.96,45.02L 366.24,44.6L 366.24,47L 368.32,47L 368.32,48.12L 366.24,48.12L 366.24,52.5675C 366.24,53.0975 366.334,53.4754 366.522,53.7013C 366.711,53.9271 367.022,54.04 367.457,54.04C 367.791,54.04 368.078,53.9334 368.32,53.72L 368.32,54.8925 Z "/>
		<path fill="#FFFFFF" fill-opacity="1" stroke-linejoin="round" d="M 371.2,43.8L 370.952,47.32L 370.007,47.32L 369.76,43.8L 371.2,43.8 Z "/>
		<path fill="#FFFFFF" fill-opacity="1" stroke-linejoin="round" d="M 372.72,54.665L 372.72,53.24C 373.42,53.7734 374.19,54.04 375.03,54.04C 376.157,54.04 376.72,53.6842 376.72,52.9725C 376.72,52.7609 376.672,52.5813 376.575,52.4338C 376.478,52.2863 376.347,52.1554 376.182,52.0413C 376.017,51.9271 375.823,51.8246 375.6,51.7338C 375.377,51.6429 375.137,51.5484 374.88,51.45C 374.525,51.3117 374.212,51.1713 373.942,51.0288C 373.672,50.8863 373.447,50.7254 373.266,50.5463C 373.085,50.3671 372.949,50.1638 372.857,49.9363C 372.766,49.7088 372.72,49.4425 372.72,49.1375C 372.72,48.7642 372.807,48.4342 372.98,48.1475C 373.153,47.8609 373.384,47.6204 373.672,47.4263C 373.961,47.2321 374.29,47.0859 374.66,46.9875C 375.03,46.8892 375.412,46.84 375.805,46.84C 376.503,46.84 377.128,46.9675 377.68,47.2225L 377.68,48.6C 377.08,48.1734 376.39,47.96 375.61,47.96C 375.365,47.96 375.144,47.9859 374.947,48.0375C 374.751,48.0892 374.582,48.1621 374.441,48.2563C 374.3,48.3504 374.192,48.4629 374.115,48.5938C 374.038,48.7246 374,48.8692 374,49.0275C 374,49.2342 374.038,49.4075 374.114,49.5475C 374.189,49.6875 374.301,49.8117 374.447,49.92C 374.594,50.0284 374.772,50.1267 374.982,50.215C 375.192,50.3034 375.431,50.3992 375.697,50.5025C 376.054,50.6375 376.374,50.7763 376.656,50.9188C 376.939,51.0613 377.179,51.2217 377.379,51.4C 377.578,51.5784 377.731,51.7838 377.839,52.0163C 377.946,52.2488 378,52.5259 378,52.8475C 378,53.2409 377.913,53.5825 377.74,53.8725C 377.567,54.1625 377.334,54.4029 377.044,54.5938C 376.753,54.7846 376.418,54.9267 376.04,55.02C 375.662,55.1134 375.265,55.16 374.85,55.16C 374.032,55.16 373.322,54.995 372.72,54.665 Z "/>
		<path fill="#FFFFFF" fill-opacity="1" stroke-linejoin="round" d="M 390.96,55L 389.68,55L 389.68,50.4825C 389.68,48.8009 389.047,47.96 387.782,47.96C 387.129,47.96 386.589,48.1984 386.161,48.675C 385.734,49.1517 385.52,49.7542 385.52,50.4825L 385.52,55L 384.24,55L 384.24,47L 385.52,47L 385.52,48.3975L 385.552,48.3975C 386.166,47.3592 387.053,46.84 388.215,46.84C 389.103,46.84 389.783,47.1217 390.254,47.685C 390.724,48.2484 390.96,49.0617 390.96,50.125L 390.96,55 Z "/>
		<path fill="#FFFFFF" fill-opacity="1" stroke-linejoin="round" d="M 399.76,51.32L 394.16,51.32C 394.182,52.1884 394.422,52.8588 394.882,53.3313C 395.342,53.8038 395.976,54.04 396.782,54.04C 397.689,54.04 398.522,53.7734 399.28,53.24L 399.28,54.4125C 398.58,54.9109 397.653,55.16 396.5,55.16C 395.373,55.16 394.488,54.7992 393.845,54.0775C 393.202,53.3559 392.88,52.34 392.88,51.03C 392.88,49.7934 393.228,48.7859 393.924,48.0075C 394.619,47.2292 395.484,46.84 396.517,46.84C 397.549,46.84 398.347,47.1763 398.912,47.8488C 399.477,48.5213 399.76,49.4559 399.76,50.6525L 399.76,51.32 Z M 398.48,50.2C 398.475,49.4934 398.297,48.9434 397.947,48.55C 397.597,48.1567 397.111,47.96 396.487,47.96C 395.886,47.96 395.375,48.1667 394.955,48.58C 394.535,48.9934 394.276,49.5334 394.177,50.2L 398.48,50.2 Z "/>
		<path fill="#FFFFFF" fill-opacity="1" stroke-linejoin="round" d="M 407.485,47L 404.797,51.0475L 407.44,55L 405.95,55L 404.382,52.4075C 404.284,52.2459 404.167,52.0425 404.03,51.7975L 404,51.7975C 403.973,51.8442 403.851,52.0475 403.632,52.4075L 402.035,55L 400.56,55L 403.287,51.0775L 400.677,47L 402.167,47L 403.71,49.735C 403.825,49.9384 403.937,50.1467 404.045,50.36L 404.077,50.36L 406.072,47L 407.485,47 Z "/>
		<path fill="#FFFFFF" fill-opacity="1" stroke-linejoin="round" d="M 412.88,54.8925C 412.572,55.0709 412.166,55.16 411.662,55.16C 410.234,55.16 409.52,54.3834 409.52,52.83L 409.52,48.12L 408.08,48.12L 408.08,47L 409.52,47L 409.52,45.02L 410.8,44.6L 410.8,47L 412.88,47L 412.88,48.12L 410.8,48.12L 410.8,52.5675C 410.8,53.0975 410.894,53.4754 411.082,53.7013C 411.271,53.9271 411.582,54.04 412.017,54.04C 412.351,54.04 412.638,53.9334 412.88,53.72L 412.88,54.8925 Z "/>
		<rect x="419.387" y="40.8134" fill="#FFFFFF" fill-opacity="1" stroke-linejoin="round" width="2.23999" height="18.6667"/>
	</g>
</svg>
